<svg xmlns="http://www.w3.org/2000/svg" viewBox="0 0 220 130" role="img" aria-label="Schemat: back_extension"><style>.b{stroke:#334155;stroke-width:4;stroke-linecap:round;fill:none;paint-order:stroke}.b2{stroke:#7c8ea3;stroke-width:3.5;stroke-linecap:round;fill:none}.h{fill:#334155}.halo{stroke:#f8fafc;stroke-width:8;stroke-linecap:round;fill:none;opacity:.9}.eq{stroke:#0284c7;stroke-width:3.5;stroke-linecap:round;fill:none}.eqf{fill:#0284c7}.pl{fill:#0ea5e9;opacity:.85}.fl{stroke:#94a3b8;stroke-width:2;stroke-dasharray:4 3}.ar{stroke:#94a3b8;stroke-width:2.5;fill:none;stroke-linecap:round;stroke-linejoin:round}.t{font:600 9px system-ui,sans-serif;fill:#64748b}</style><g transform="translate(0 0)"><rect class="eq" x="40" y="72" width="40" height="8" rx="2"/><rect class="eq" x="74" y="60" width="6" height="44" rx="2"/><line class="halo" x1="44.0" y1="74.0" x2="38.4" y2="105.5"/><line class="halo" x1="44.0" y1="74.0" x2="71.9" y2="71.6"/><line class="halo" x1="71.9" y1="71.6" x2="81.9" y2="88.9"/><line class="halo" x1="81.9" y1="88.9" x2="91.9" y2="88.9"/><line class="halo" x1="38.4" y1="105.5" x2="31.6" y2="124.3"/><line class="halo" x1="31.6" y1="124.3" x2="28.5" y2="142.0"/><circle class="halo" cx="35.7" cy="121.3" r="7"/><line class="b" x1="44.0" y1="74.0" x2="38.4" y2="105.5"/><line class="b" x1="44.0" y1="74.0" x2="71.9" y2="71.6"/><line class="b" x1="71.9" y1="71.6" x2="81.9" y2="88.9"/><line class="b" x1="81.9" y1="88.9" x2="91.9" y2="88.9"/><line class="b" x1="38.4" y1="105.5" x2="31.6" y2="124.3"/><line class="b" x1="31.6" y1="124.3" x2="28.5" y2="142.0"/><circle class="h" cx="35.7" cy="121.3" r="7"/><line class="fl" x1="4" y1="112" x2="96" y2="112"/></g><path class="ar" d="M104 66 h12 m-4 -4 l4 4 l-4 4"/><g transform="translate(120 0)"><rect class="eq" x="40" y="72" width="40" height="8" rx="2"/><rect class="eq" x="74" y="60" width="6" height="44" rx="2"/><line class="halo" x1="44.0" y1="74.0" x2="12.0" y2="74.0"/><line class="halo" x1="44.0" y1="74.0" x2="71.9" y2="71.6"/><line class="halo" x1="71.9" y1="71.6" x2="81.9" y2="88.9"/><line class="halo" x1="81.9" y1="88.9" x2="91.9" y2="88.9"/><line class="halo" x1="12.0" y1="74.0" x2="5.2" y2="92.8"/><line class="halo" x1="5.2" y1="92.8" x2="-1.0" y2="109.7"/><circle class="halo" cx="-4.0" cy="74.0" r="7"/><line class="b" x1="44.0" y1="74.0" x2="12.0" y2="74.0"/><line class="b" x1="44.0" y1="74.0" x2="71.9" y2="71.6"/><line class="b" x1="71.9" y1="71.6" x2="81.9" y2="88.9"/><line class="b" x1="81.9" y1="88.9" x2="91.9" y2="88.9"/><line class="b" x1="12.0" y1="74.0" x2="5.2" y2="92.8"/><line class="b" x1="5.2" y1="92.8" x2="-1.0" y2="109.7"/><circle class="h" cx="-4.0" cy="74.0" r="7"/><line class="fl" x1="4" y1="112" x2="96" y2="112"/></g><text class="t" x="6" y="124">start</text><text class="t" x="126" y="124">koniec</text></svg>