<svg xmlns="http://www.w3.org/2000/svg" viewBox="0 0 220 130" role="img" aria-label="Schemat: jump_squat"><style>.b{stroke:#334155;stroke-width:4;stroke-linecap:round;fill:none;paint-order:stroke}.b2{stroke:#7c8ea3;stroke-width:3.5;stroke-linecap:round;fill:none}.h{fill:#334155}.halo{stroke:#f8fafc;stroke-width:8;stroke-linecap:round;fill:none;opacity:.9}.eq{stroke:#0284c7;stroke-width:3.5;stroke-linecap:round;fill:none}.eqf{fill:#0284c7}.pl{fill:#0ea5e9;opacity:.85}.fl{stroke:#94a3b8;stroke-width:2;stroke-dasharray:4 3}.ar{stroke:#94a3b8;stroke-width:2.5;fill:none;stroke-linecap:round;stroke-linejoin:round}.t{font:600 9px system-ui,sans-serif;fill:#64748b}</style><g transform="translate(0 0)"><line class="halo" x1="46.0" y1="80.0" x2="57.6" y2="48.1"/><line class="halo" x1="46.0" y1="80.0" x2="67.2" y2="101.2"/><line class="halo" x1="67.2" y1="101.2" x2="64.6" y2="131.1"/><line class="halo" x1="64.6" y1="131.1" x2="74.6" y2="131.1"/><line class="halo" x1="57.6" y1="48.1" x2="59.4" y2="68.0"/><line class="halo" x1="59.4" y1="68.0" x2="59.4" y2="86.0"/><circle class="halo" cx="63.1" cy="33.0" r="7"/><line class="b" x1="46.0" y1="80.0" x2="57.6" y2="48.1"/><line class="b" x1="46.0" y1="80.0" x2="67.2" y2="101.2"/><line class="b" x1="67.2" y1="101.2" x2="64.6" y2="131.1"/><line class="b" x1="64.6" y1="131.1" x2="74.6" y2="131.1"/><line class="b" x1="57.6" y1="48.1" x2="59.4" y2="68.0"/><line class="b" x1="59.4" y1="68.0" x2="59.4" y2="86.0"/><circle class="h" cx="63.1" cy="33.0" r="7"/><rect class="pl" x="54.4" y="83.0" width="10" height="6" rx="1.5"/><line class="fl" x1="4" y1="112" x2="96" y2="112"/></g><path class="ar" d="M104 66 h12 m-4 -4 l4 4 l-4 4"/><g transform="translate(120 0)"><line class="halo" x1="50.0" y1="46.0" x2="48.8" y2="12.0"/><line class="halo" x1="50.0" y1="46.0" x2="52.6" y2="75.9"/><line class="halo" x1="52.6" y1="75.9" x2="57.8" y2="105.4"/><line class="halo" x1="57.8" y1="105.4" x2="65.5" y2="111.9"/><line class="halo" x1="48.8" y1="12.0" x2="50.6" y2="31.9"/><line class="halo" x1="50.6" y1="31.9" x2="50.6" y2="49.9"/><circle class="halo" cx="48.3" cy="-4.0" r="7"/><line class="b" x1="50.0" y1="46.0" x2="48.8" y2="12.0"/><line class="b" x1="50.0" y1="46.0" x2="52.6" y2="75.9"/><line class="b" x1="52.6" y1="75.9" x2="57.8" y2="105.4"/><line class="b" x1="57.8" y1="105.4" x2="65.5" y2="111.9"/><line class="b" x1="48.8" y1="12.0" x2="50.6" y2="31.9"/><line class="b" x1="50.6" y1="31.9" x2="50.6" y2="49.9"/><circle class="h" cx="48.3" cy="-4.0" r="7"/><rect class="pl" x="45.6" y="46.9" width="10" height="6" rx="1.5"/><line class="fl" x1="4" y1="112" x2="96" y2="112"/></g><text class="t" x="6" y="124">start</text><text class="t" x="126" y="124">koniec</text></svg>