<svg xmlns="http://www.w3.org/2000/svg" viewBox="0 0 220 130" role="img" aria-label="Schemat: kb_swing"><style>.b{stroke:#334155;stroke-width:4;stroke-linecap:round;fill:none;paint-order:stroke}.b2{stroke:#7c8ea3;stroke-width:3.5;stroke-linecap:round;fill:none}.h{fill:#334155}.halo{stroke:#f8fafc;stroke-width:8;stroke-linecap:round;fill:none;opacity:.9}.eq{stroke:#0284c7;stroke-width:3.5;stroke-linecap:round;fill:none}.eqf{fill:#0284c7}.pl{fill:#0ea5e9;opacity:.85}.fl{stroke:#94a3b8;stroke-width:2;stroke-dasharray:4 3}.ar{stroke:#94a3b8;stroke-width:2.5;fill:none;stroke-linecap:round;stroke-linejoin:round}.t{font:600 9px system-ui,sans-serif;fill:#64748b}</style><g transform="translate(0 0)"><line class="halo" x1="54.0" y1="70.0" x2="24.6" y2="53.0"/><line class="halo" x1="54.0" y1="70.0" x2="64.3" y2="98.2"/><line class="halo" x1="64.3" y1="98.2" x2="63.2" y2="128.2"/><line class="halo" x1="63.2" y1="128.2" x2="73.2" y2="128.2"/><line class="halo" x1="24.6" y1="53.0" x2="13.1" y2="69.4"/><line class="halo" x1="13.1" y1="69.4" x2="4.1" y2="85.0"/><circle class="halo" cx="10.7" cy="45.0" r="7"/><line class="b" x1="54.0" y1="70.0" x2="24.6" y2="53.0"/><line class="b" x1="54.0" y1="70.0" x2="64.3" y2="98.2"/><line class="b" x1="64.3" y1="98.2" x2="63.2" y2="128.2"/><line class="b" x1="63.2" y1="128.2" x2="73.2" y2="128.2"/><line class="b" x1="24.6" y1="53.0" x2="13.1" y2="69.4"/><line class="b" x1="13.1" y1="69.4" x2="4.1" y2="85.0"/><circle class="h" cx="10.7" cy="45.0" r="7"/><circle class="pl" cx="4.1" cy="92.0" r="6"/><path class="eq" d="M0.1 88.0 q4 -7 8 0"/><line class="fl" x1="4" y1="112" x2="96" y2="112"/></g><path class="ar" d="M104 66 h12 m-4 -4 l4 4 l-4 4"/><g transform="translate(120 0)"><line class="halo" x1="50.0" y1="62.0" x2="48.8" y2="28.0"/><line class="halo" x1="50.0" y1="62.0" x2="51.0" y2="92.0"/><line class="halo" x1="51.0" y1="92.0" x2="51.0" y2="122.0"/><line class="halo" x1="51.0" y1="122.0" x2="61.0" y2="122.0"/><line class="halo" x1="48.8" y1="28.0" x2="68.8" y2="28.0"/><line class="halo" x1="68.8" y1="28.0" x2="86.8" y2="28.0"/><circle class="halo" cx="48.3" cy="12.0" r="7"/><line class="b" x1="50.0" y1="62.0" x2="48.8" y2="28.0"/><line class="b" x1="50.0" y1="62.0" x2="51.0" y2="92.0"/><line class="b" x1="51.0" y1="92.0" x2="51.0" y2="122.0"/><line class="b" x1="51.0" y1="122.0" x2="61.0" y2="122.0"/><line class="b" x1="48.8" y1="28.0" x2="68.8" y2="28.0"/><line class="b" x1="68.8" y1="28.0" x2="86.8" y2="28.0"/><circle class="h" cx="48.3" cy="12.0" r="7"/><circle class="pl" cx="86.8" cy="28.0" r="6"/><path class="eq" d="M82.8 24.0 q4 -7 8 0"/><line class="fl" x1="4" y1="112" x2="96" y2="112"/></g><text class="t" x="6" y="124">start</text><text class="t" x="126" y="124">koniec</text></svg>