<svg xmlns="http://www.w3.org/2000/svg" viewBox="0 0 220 130" role="img" aria-label="Schemat: push_up"><style>.b{stroke:#334155;stroke-width:4;stroke-linecap:round;fill:none;paint-order:stroke}.b2{stroke:#7c8ea3;stroke-width:3.5;stroke-linecap:round;fill:none}.h{fill:#334155}.halo{stroke:#f8fafc;stroke-width:8;stroke-linecap:round;fill:none;opacity:.9}.eq{stroke:#0284c7;stroke-width:3.5;stroke-linecap:round;fill:none}.eqf{fill:#0284c7}.pl{fill:#0ea5e9;opacity:.85}.fl{stroke:#94a3b8;stroke-width:2;stroke-dasharray:4 3}.ar{stroke:#94a3b8;stroke-width:2.5;fill:none;stroke-linecap:round;stroke-linejoin:round}.t{font:600 9px system-ui,sans-serif;fill:#64748b}</style><g transform="translate(0 0)"><line class="halo" x1="40.0" y1="82.0" x2="73.3" y2="74.9"/><line class="halo" x1="40.0" y1="82.0" x2="10.5" y2="87.2"/><line class="halo" x1="10.5" y1="87.2" x2="40.3" y2="89.8"/><line class="halo" x1="40.3" y1="89.8" x2="50.3" y2="89.8"/><line class="halo" x1="73.3" y1="74.9" x2="73.3" y2="94.9"/><line class="halo" x1="73.3" y1="94.9" x2="73.3" y2="112.9"/><circle class="halo" cx="88.9" cy="71.6" r="7"/><line class="b" x1="40.0" y1="82.0" x2="73.3" y2="74.9"/><line class="b" x1="40.0" y1="82.0" x2="10.5" y2="87.2"/><line class="b" x1="10.5" y1="87.2" x2="40.3" y2="89.8"/><line class="b" x1="40.3" y1="89.8" x2="50.3" y2="89.8"/><line class="b" x1="73.3" y1="74.9" x2="73.3" y2="94.9"/><line class="b" x1="73.3" y1="94.9" x2="73.3" y2="112.9"/><circle class="h" cx="88.9" cy="71.6" r="7"/><line class="fl" x1="4" y1="112" x2="96" y2="112"/></g><path class="ar" d="M104 66 h12 m-4 -4 l4 4 l-4 4"/><g transform="translate(120 0)"><line class="halo" x1="40.0" y1="98.0" x2="73.7" y2="93.3"/><line class="halo" x1="40.0" y1="98.0" x2="10.5" y2="103.2"/><line class="halo" x1="10.5" y1="103.2" x2="40.3" y2="105.8"/><line class="halo" x1="40.3" y1="105.8" x2="50.3" y2="105.8"/><line class="halo" x1="73.7" y1="93.3" x2="55.7" y2="94.8"/><line class="halo" x1="55.7" y1="94.8" x2="70.8" y2="100.3"/><circle class="halo" cx="89.5" cy="91.0" r="7"/><line class="b" x1="40.0" y1="98.0" x2="73.7" y2="93.3"/><line class="b" x1="40.0" y1="98.0" x2="10.5" y2="103.2"/><line class="b" x1="10.5" y1="103.2" x2="40.3" y2="105.8"/><line class="b" x1="40.3" y1="105.8" x2="50.3" y2="105.8"/><line class="b" x1="73.7" y1="93.3" x2="55.7" y2="94.8"/><line class="b" x1="55.7" y1="94.8" x2="70.8" y2="100.3"/><circle class="h" cx="89.5" cy="91.0" r="7"/><line class="fl" x1="4" y1="112" x2="96" y2="112"/></g><text class="t" x="6" y="124">start</text><text class="t" x="126" y="124">koniec</text></svg>